<?xml version="1.0" encoding="UTF-8"?>
<svg width="30px" height="25px" viewBox="0 0 30 25" version="1.1" xmlns="http://www.w3.org/2000/svg" xmlns:xlink="http://www.w3.org/1999/xlink">
    <title>Shape</title>
    <g id="Page-1" stroke="none" stroke-width="1" fill="none" fill-rule="evenodd">
        <path d="M0.455816544,9.92367948 L29.0772174,0.0301025342 C29.5071282,-0.118916341 29.9171486,0.309518812 29.7983798,0.782791503 L24.7907709,20.7165387 C24.702211,21.0686276 24.3545186,21.2613419 24.0406604,21.1318688 L13.9288043,16.9707381 C13.5312289,16.807001 13.4327346,16.2433644 13.7478752,15.9328692 L21.6802281,8.11279283 C22.1678405,7.63237887 21.6415489,6.78450433 21.0495357,7.09794321 L7.77069039,14.1250027 C7.62527294,14.2020437 7.45702698,14.2077896 7.30738363,14.1413305 L0.413378998,11.0868321 C-0.0793088537,10.8681313 -0.0514049358,10.0988873 0.455863078,9.92385846 L0.455816544,9.92367948 Z M16.3659737,11.6091494 C16.6149608,11.3738877 16.3384967,10.9498327 16.0516772,11.1273578 L9.72365082,14.887388 C9.1529651,15.2408545 8.88496412,15.9783602 9.07899835,16.6611671 L11.0336794,23.8212792 C11.1330178,24.1839475 11.5515171,24.3009984 11.7990487,24.0353819 L15.7004027,20.0173122 C15.8597694,19.8459805 15.8090424,19.5532295 15.6029636,19.4577908 L11.5547582,17.2624823 C11.3324034,17.1417459 11.288651,16.8177158 11.468947,16.632602 L16.3655787,11.6091023 L16.3659737,11.6091494 Z" id="Shape" fill="#FFFFFF" fill-rule="nonzero"></path>
    </g>
</svg>